<mxfile host="app.diagrams.net" modified="2024-10-21T04:48:58.056Z" agent="Mozilla/5.0 (Windows NT 10.0; Win64; x64) AppleWebKit/537.36 (KHTML, like Gecko) Chrome/126.0.0.0 YaBrowser/24.7.0.0 Safari/537.36" version="24.6.5" etag="dSBzqs3I46UXtFZQjxjU" type="github">
  <diagram name="Страница — 1" id="3On01EBuigxwWF5oJo5V">
    <mxGraphModel>
      <root>
        <mxCell id="0" />
        <mxCell id="1" parent="0" />
      </root>
    </mxGraphModel>
  </diagram>
</mxfile>
